<svg xmlns="http://www.w3.org/2000/svg" fill="none" viewBox="0 0 24 24"><path fill="currentColor" fill-rule="evenodd" d="M11.26 1a.5.5 0 0 0-.494.423l-.406 2.513a.5.5 0 0 1-.306.386l-1.426.585a.505.505 0 0 0-.304.555l.32 1.804a.5.5 0 0 1-.247.523L2.258 11.21a.506.506 0 0 0-.088.82l2.017 1.791c.121.108.286.15.444.114l2.763-.638a.502.502 0 0 1 .61.543l-.862 8.603c-.058.578.74.78.961.244L8.88 20.8a.5.5 0 0 1 .463-.31h5.314a.5.5 0 0 1 .463.31l.777 1.887c.22.536 1.02.334.961-.244l-.862-8.603a.502.502 0 0 1 .61-.543l2.763.638a.5.5 0 0 0 .444-.114l2.017-1.792a.506.506 0 0 0-.088-.82L15.603 7.79a.5.5 0 0 1-.247-.523l.32-1.804a.505.505 0 0 0-.304-.555l-1.426-.585a.5.5 0 0 1-.306-.386l-.406-2.513A.5.5 0 0 0 12.74 1zm1.97 13.968c.24 0 .446.171.492.408l.525 2.727c.06.312-.177.6-.492.6h-3.51a.503.503 0 0 1-.492-.6l.525-2.727a.5.5 0 0 1 .492-.408z" clip-rule="evenodd"/></svg>